<?xml version="1.0" encoding="UTF-8" ?>
<!DOCTYPE svg PUBLIC "-//W3C//DTD SVG 1.1//EN" "http://www.w3.org/Graphics/SVG/1.1/DTD/svg11.dtd">
<svg width="142pt" height="99pt" viewBox="0 0 142 99" version="1.1" xmlns="http://www.w3.org/2000/svg">
<path fill="#fefefe" d=" M 0.00 0.00 L 142.00 0.00 L 142.00 99.00 L 0.00 99.00 L 0.00 0.00 Z" />
<path fill="#013c70" d=" M 97.43 10.45 C 98.58 6.91 101.32 3.74 105.06 2.91 C 108.39 1.99 111.68 3.41 114.85 4.29 C 118.03 5.37 121.41 5.97 124.39 7.58 C 127.24 9.35 125.31 14.58 121.95 13.98 C 116.87 13.14 112.20 10.58 107.07 9.99 C 104.99 10.60 104.43 12.90 103.73 14.68 C 97.27 33.23 90.65 51.72 84.15 70.26 C 83.47 72.07 82.89 74.31 80.80 74.96 C 78.44 75.01 76.11 74.48 73.78 74.16 C 53.82 71.10 33.86 68.06 13.88 65.06 C 12.56 64.81 11.18 64.65 9.97 64.02 C 8.45 62.86 8.57 60.72 8.25 59.03 C 7.08 46.98 5.74 34.94 4.56 22.89 C 4.19 20.72 4.63 17.63 7.37 17.42 C 15.22 17.05 23.09 17.43 30.94 17.26 C 30.98 19.75 31.09 22.23 31.21 24.72 C 24.87 24.73 18.52 24.69 12.17 24.75 C 13.30 35.75 14.48 46.75 15.55 57.76 C 17.75 58.12 19.95 58.48 22.13 58.94 C 25.93 59.75 29.78 60.28 33.63 60.76 C 34.44 60.87 36.07 61.10 36.88 61.21 C 40.48 61.82 44.09 62.37 47.71 62.82 C 49.89 63.08 52.03 63.48 54.20 63.81 C 54.84 63.90 56.13 64.09 56.77 64.19 C 59.44 64.60 62.13 64.88 64.78 65.41 C 68.11 66.05 71.47 66.67 74.86 66.90 C 75.53 66.93 76.86 66.99 77.53 67.02 C 84.03 48.12 90.84 29.32 97.43 10.45 Z" />
<path fill="#02b7f1" d=" M 75.70 4.46 C 80.14 4.43 84.58 4.42 89.02 4.48 C 84.40 25.30 79.79 46.14 74.86 66.90 C 71.47 66.67 68.11 66.05 64.78 65.41 C 68.71 45.14 72.09 24.78 75.70 4.46 Z" />
<path fill="#f3652e" d=" M 55.14 10.17 C 59.03 10.25 62.92 10.00 66.80 10.33 L 67.37 10.99 C 65.36 28.81 62.93 46.58 60.87 64.40 C 59.50 64.36 58.13 64.29 56.77 64.19 C 56.13 64.09 54.84 63.90 54.20 63.81 C 52.78 63.38 50.22 63.25 50.78 61.08 C 52.12 44.10 53.98 27.16 55.14 10.17 Z" />
<path fill="#98cd48" d=" M 36.35 17.31 C 40.47 17.28 44.60 17.29 48.72 17.33 C 48.38 32.49 47.88 47.65 47.71 62.82 C 44.09 62.37 40.48 61.82 36.88 61.21 C 37.22 46.58 36.67 31.94 36.35 17.31 Z" />
<path fill="#9348a2" d=" M 20.12 28.91 C 23.91 28.76 27.71 28.77 31.49 29.12 C 31.74 37.45 32.14 45.77 32.41 54.10 C 32.45 56.37 32.75 58.65 33.63 60.76 C 29.78 60.28 25.93 59.75 22.13 58.94 C 21.38 48.93 20.79 38.92 20.12 28.91 Z" />
<path fill="#013c70" d=" M 24.45 69.43 C 30.18 67.85 35.88 74.10 33.80 79.66 C 32.32 85.41 24.10 87.25 20.32 82.68 C 16.15 78.52 18.57 70.42 24.45 69.43 Z" />
<path fill="#013c70" d=" M 59.36 76.34 C 64.50 73.96 71.00 78.33 70.51 84.03 C 70.67 90.24 62.56 94.03 57.77 90.21 C 52.78 86.94 53.74 78.38 59.36 76.34 Z" />
</svg>
