<?xml version="1.0" encoding="UTF-8" ?>
<!DOCTYPE svg PUBLIC "-//W3C//DTD SVG 1.1//EN" "http://www.w3.org/Graphics/SVG/1.1/DTD/svg11.dtd">
<svg width="232pt" height="144pt" viewBox="0 0 232 144" version="1.1" xmlns="http://www.w3.org/2000/svg">
<path fill="#ffffff" d=" M 0.00 0.00 L 232.00 0.00 L 232.00 144.00 L 0.00 144.00 L 0.00 0.00 Z" />
<path fill="#013c70" d=" M 139.75 13.66 C 141.37 8.78 146.89 5.52 151.93 6.91 C 156.58 8.21 161.29 9.45 165.79 11.23 C 168.98 12.41 168.01 17.66 164.77 18.00 C 159.37 17.55 154.50 14.57 149.12 13.99 C 147.25 14.45 146.57 16.37 145.99 17.97 C 139.31 37.02 132.56 56.03 125.85 75.07 C 125.40 76.71 124.27 77.98 123.13 79.19 C 100.36 75.89 77.64 72.31 54.89 68.89 C 52.63 68.84 50.44 67.35 50.51 64.91 C 49.11 51.94 47.73 38.97 46.52 25.99 C 45.99 23.68 47.55 21.20 50.05 21.34 C 57.68 21.16 65.31 21.36 72.94 21.27 C 73.00 23.75 73.13 26.23 73.26 28.72 C 66.89 28.73 60.52 28.71 54.15 28.74 C 55.33 39.76 56.45 50.78 57.58 61.81 C 59.77 62.14 61.96 62.50 64.14 62.94 C 66.96 63.53 69.81 63.96 72.67 64.24 C 76.68 64.62 80.60 65.55 84.59 66.05 C 84.85 66.09 85.38 66.17 85.64 66.21 C 89.54 66.79 93.43 67.39 97.33 67.97 C 97.66 68.02 98.30 68.12 98.63 68.16 C 102.79 68.81 106.96 69.38 111.12 70.07 L 111.70 70.16 C 114.25 70.66 116.84 70.93 119.43 71.18 C 126.15 51.99 132.95 32.82 139.75 13.66 Z" />
<path fill="#02b7f1" d=" M 117.71 8.41 C 122.22 8.46 126.72 8.47 131.22 8.47 C 126.27 29.16 121.78 49.96 117.05 70.71 C 115.26 70.52 113.48 70.37 111.70 70.16 L 111.12 70.07 C 109.69 69.78 108.27 69.42 106.86 69.09 C 110.72 48.91 114.13 28.64 117.71 8.41 Z" />
<path fill="#f3652e" d=" M 97.09 14.16 C 101.25 14.21 105.42 14.23 109.58 14.20 C 107.24 32.32 105.03 50.46 102.85 68.60 C 101.44 68.46 100.03 68.32 98.63 68.16 C 98.30 68.12 97.66 68.02 97.33 67.97 C 95.74 67.66 94.16 67.34 92.57 67.03 C 94.02 49.40 95.97 31.81 97.09 14.16 Z" />
<path fill="#98cd48" d=" M 78.30 21.19 C 82.46 21.36 86.62 21.37 90.78 21.27 C 90.27 36.39 89.98 51.52 89.66 66.65 C 88.66 66.54 86.65 66.32 85.64 66.21 C 85.38 66.17 84.85 66.09 84.59 66.05 C 82.73 65.71 80.89 65.32 79.03 64.97 C 79.02 50.37 78.79 35.77 78.30 21.19 Z" />
<path fill="#9349a2" d=" M 62.01 32.83 C 65.81 32.84 69.61 32.86 73.41 32.85 C 73.83 43.37 74.34 53.90 74.68 64.42 L 72.67 64.24 C 69.81 63.96 66.96 63.53 64.14 62.94 C 63.31 52.91 62.91 42.85 62.01 32.83 Z" />
<path fill="#013c70" d=" M 65.47 73.70 C 71.09 71.37 77.61 77.13 75.98 82.98 C 74.99 88.80 67.02 91.41 62.83 87.20 C 58.39 83.50 59.91 75.42 65.47 73.70 Z" />
<path fill="#013c70" d=" M 101.35 80.34 C 106.51 77.95 113.03 82.35 112.52 88.06 C 112.66 93.96 105.23 97.78 100.37 94.62 C 94.81 91.70 95.44 82.47 101.35 80.34 Z" />
<path fill="#013c70" d=" M 15.55 107.13 C 11.69 101.18 14.83 91.42 22.02 89.74 C 25.01 89.12 29.20 89.03 30.70 92.29 C 31.62 95.74 30.59 99.30 29.98 102.71 C 33.18 98.31 35.80 93.21 40.47 90.15 C 42.87 89.15 46.36 88.98 47.95 91.43 C 48.92 95.45 46.27 99.15 45.21 102.89 C 49.32 98.68 52.05 92.90 57.44 90.11 C 59.79 89.34 63.36 88.67 64.87 91.22 C 65.76 93.23 65.12 95.45 64.46 97.42 C 61.93 104.43 58.82 111.22 56.09 118.15 C 58.65 120.80 62.50 120.27 65.04 117.90 C 64.69 113.04 65.71 107.74 69.39 104.27 C 71.88 102.48 75.46 101.04 78.37 102.70 C 80.36 103.74 80.92 106.23 80.63 108.30 C 80.22 113.08 75.97 116.11 72.76 119.16 C 76.29 120.21 80.23 120.58 83.61 118.83 C 84.11 113.03 86.59 106.62 92.24 104.10 C 95.03 102.62 98.33 102.69 101.27 103.67 C 103.08 101.85 105.51 102.50 107.74 102.94 C 106.11 108.51 103.05 113.54 101.67 119.19 C 104.81 120.79 108.98 119.73 110.44 116.40 C 111.91 111.59 112.93 106.65 114.29 101.80 C 116.08 101.58 117.89 101.59 119.68 101.85 C 119.11 103.99 118.49 106.11 117.84 108.23 C 120.37 105.82 122.74 102.79 126.35 102.05 C 128.16 101.60 130.77 102.75 130.49 104.93 C 130.45 110.00 127.60 114.47 126.29 119.26 C 127.93 119.69 129.79 120.50 131.37 119.42 C 135.59 117.05 138.05 112.64 140.75 108.80 C 142.34 106.91 141.77 104.36 142.18 102.11 C 143.42 99.89 146.23 100.07 148.40 99.74 C 149.06 101.91 148.39 104.02 147.42 105.98 C 148.77 108.14 150.32 110.37 150.40 113.02 C 150.74 115.62 149.27 117.95 148.33 120.27 C 151.34 120.12 154.78 118.97 155.91 115.88 C 158.53 107.15 160.73 98.26 164.06 89.76 C 165.85 89.70 167.65 89.70 169.45 89.73 C 168.93 96.50 164.93 102.38 163.05 108.82 C 165.81 105.90 168.68 101.10 173.44 102.59 C 175.72 102.72 175.69 105.35 175.35 107.03 C 174.30 111.11 172.55 114.99 171.67 119.12 C 174.66 120.53 178.24 120.15 180.37 117.46 C 181.32 113.93 181.51 109.96 184.13 107.13 C 186.58 104.17 191.01 101.24 194.71 103.87 C 195.33 103.89 196.56 103.95 197.18 103.97 C 200.18 106.85 199.10 111.44 197.85 114.91 C 196.33 119.12 192.97 123.57 188.01 123.37 C 185.47 123.68 183.22 122.48 181.36 120.88 C 177.02 123.88 170.96 123.98 166.52 121.12 C 166.37 116.06 168.78 111.51 170.02 106.73 C 164.23 110.52 161.28 117.13 158.58 123.24 C 157.08 122.96 155.56 122.75 154.11 122.29 C 151.08 123.19 147.90 123.14 144.81 122.67 C 141.39 123.29 137.76 123.59 134.65 121.69 C 131.43 123.27 127.72 123.48 124.23 122.90 C 122.46 122.50 120.59 121.08 120.84 119.05 C 121.22 114.69 123.46 110.85 124.90 106.80 C 118.47 109.47 116.60 116.90 113.48 122.46 C 112.85 122.76 111.59 123.35 110.96 123.65 C 110.44 123.30 109.41 122.60 108.89 122.25 C 105.31 123.36 101.41 123.41 97.87 122.08 C 97.66 120.90 97.46 119.72 97.26 118.54 C 94.38 122.33 88.86 125.36 84.64 121.64 C 78.98 123.96 71.66 124.44 66.47 120.74 C 62.71 123.57 57.42 123.89 53.26 121.81 C 50.66 120.49 50.70 117.21 51.57 114.83 C 53.84 108.18 57.20 101.97 59.67 95.40 C 59.37 95.09 58.78 94.47 58.48 94.16 C 54.33 96.30 51.63 100.30 48.96 103.97 C 44.69 109.98 41.76 116.78 38.16 123.17 C 36.42 122.86 34.29 123.40 32.91 122.02 C 35.79 114.03 39.93 106.53 42.62 98.46 C 42.93 97.13 43.88 95.09 42.15 94.29 C 40.44 95.00 38.82 96.02 37.65 97.49 C 31.80 104.59 28.67 113.36 24.31 121.35 C 23.10 123.77 20.10 122.94 18.01 122.53 C 21.04 114.69 24.51 106.96 26.43 98.75 C 26.86 97.07 27.02 94.22 24.72 93.97 C 21.74 93.07 19.51 95.98 18.67 98.46 C 17.60 101.25 18.74 104.15 19.30 106.91 C 18.36 106.97 16.49 107.07 15.55 107.13 Z" />
<path fill="#013c70" d=" M 206.09 99.66 C 207.83 99.58 209.56 99.56 211.30 99.59 C 210.71 102.14 209.94 104.65 209.18 107.15 C 211.47 105.34 213.74 102.72 216.93 102.82 C 219.59 102.68 222.04 105.26 221.80 107.91 C 222.18 112.59 219.41 116.52 216.80 120.09 C 220.63 120.64 223.96 118.92 226.74 116.46 C 226.76 117.39 226.79 119.25 226.81 120.18 C 224.40 122.33 221.26 123.45 218.03 123.16 C 213.63 122.82 209.23 122.86 204.83 123.07 C 203.77 126.74 202.69 130.40 201.73 134.10 C 199.77 134.53 197.76 134.61 195.78 134.33 C 199.58 122.88 202.82 111.26 206.09 99.66 Z" />
<path fill="#ffffff" d=" M 70.20 116.47 C 70.30 112.08 72.20 107.54 76.44 105.69 C 78.52 110.43 73.55 114.02 70.20 116.47 Z" />
<path fill="#ffffff" d=" M 185.97 117.95 C 186.44 113.21 189.29 109.18 192.24 105.62 C 192.74 107.75 193.65 109.79 193.94 111.96 C 193.30 114.83 192.14 117.87 189.64 119.63 C 188.32 120.67 185.66 119.88 185.97 117.95 Z" />
<path fill="#ffffff" d=" M 91.21 111.31 C 93.84 109.12 96.55 106.60 100.25 106.82 C 98.72 111.40 95.88 115.37 92.62 118.87 C 91.88 118.98 90.40 119.20 89.66 119.31 C 89.19 116.51 90.41 113.91 91.21 111.31 Z" />
<path fill="#ffffff" d=" M 206.19 118.08 C 208.56 113.83 211.03 109.43 215.11 106.58 C 219.08 110.27 214.57 115.32 212.34 118.73 C 210.31 118.38 208.25 118.18 206.19 118.08 Z" />
<path fill="#ffffff" d=" M 138.89 117.25 C 140.73 114.91 142.48 112.48 144.54 110.33 C 145.50 114.08 144.27 117.98 141.00 120.14 C 140.30 119.17 139.60 118.21 138.89 117.25 Z" />
</svg>
